<svg width="1366" height="1366" viewBox="0 0 1366 1366" fill="none" xmlns="http://www.w3.org/2000/svg">
<g filter="url(#filter0_d_0_1)">
<g style="mix-blend-mode:luminosity" filter="url(#filter1_d_0_1)">
<path d="M631.416 352.933C624.883 360.667 536.216 449.467 512.216 472.4C486.616 496.933 407.816 573.2 370.083 610C355.016 624.667 339.549 639.6 335.683 643.2C331.816 646.667 328.749 649.733 329.016 649.867C329.283 650 368.75 681.333 368.75 681.333L357 672.009C357 672.009 368.35 681.333 368.75 681.333C369.283 681.333 373 676.5 373 676.5C373.8 674.9 384.883 662.4 399.95 646.667C430.616 614.933 430.483 614.933 477.416 570.8C495.816 553.467 522.75 527.6 537.416 513.333C552.083 498.933 575.15 476.533 588.75 463.467C602.35 450.4 619.016 434 625.816 427.067C632.883 419.733 638.75 414.8 639.283 415.467C639.95 416.133 642.75 419.333 645.683 422.667C655.95 434.4 795.683 570.8 814.75 587.6C820.616 592.8 843.95 615.733 866.616 638.533L907.816 679.867L944.75 649.333L928.823 662.5C928.823 662.5 944.75 649.733 944.75 649.333C944.75 648 902.35 606.8 860.083 567.067C836.616 544.933 776.883 486.667 727.416 437.467C677.95 388.267 637.016 348 636.616 348C636.083 348 633.816 350.267 631.416 352.933Z" fill="white"/>
</g>
<g style="mix-blend-mode:luminosity" filter="url(#filter2_d_0_1)">
<path d="M764.534 326.124C759.816 326.714 752.786 330.163 750.921 332.69C749.368 334.796 742.634 349.107 725.017 387.135C713.152 412.883 709.368 421.014 703.109 434.565C699.635 442.274 695.824 450.832 694.651 453.629C693.621 456.429 690.96 462.53 688.817 467.189C666.227 516.401 654.415 545.741 656.627 546.64C657.455 546.998 659.558 547.382 661.4 547.419C666.783 547.528 686.163 550.567 688.086 551.546C689.045 552.078 690.167 552.271 690.608 552.024C691.927 551.366 698.154 538.327 710.106 511.212C727.68 471.645 735.636 453.768 743.4 436.656C747.517 427.763 753.466 414.633 756.623 407.43C759.922 400.231 768.46 382.109 775.521 367.12C782.724 352.134 788.525 339.087 788.591 338.062C788.766 335.33 784.159 329.767 780.291 328.15C776.565 326.537 768.828 325.527 764.534 326.124Z" fill="white"/>
</g>
<g style="mix-blend-mode:luminosity" filter="url(#filter3_d_0_1)">
<path d="M761.66 331.169C758.99 331.497 754.644 334.531 753.262 336.932C752.11 338.932 746.375 352.731 731.29 389.413C721.11 414.253 717.875 422.095 712.509 435.168C709.505 442.609 706.194 450.872 705.152 453.577C704.187 456.292 701.857 462.187 700.018 466.681C680.609 514.162 669.946 542.559 671.03 543.568C671.433 543.968 672.531 544.461 673.535 544.597C676.47 544.995 686.657 549.047 687.571 550.12C688.021 550.698 688.608 550.95 688.886 550.729C689.702 550.149 694.977 537.582 705.4 511.394C720.682 473.187 727.595 455.925 734.294 439.41C737.82 430.832 742.955 418.159 745.714 411.202C748.55 404.255 755.818 386.782 761.828 372.33C767.915 357.889 772.958 345.29 773.141 344.28C773.627 341.586 771.896 335.832 770.007 334.024C768.195 332.226 764.099 330.809 761.66 331.169Z" fill="white"/>
</g>
<g style="mix-blend-mode:luminosity" filter="url(#filter4_d_0_1)">
<path d="M641 785.167L623.5 784.662L595.5 785.105L586.5 784.741L565 784.802L540 784.885C540 784.885 485.833 784.934 474.5 784.934H455.283V711.6C455.15 670.4 454.216 627.334 454.216 627.334V618L447.5 624.818L436.977 635.5L425.648 647C425.114 647.934 454.216 618 454.216 618L410.083 662.8L409.816 724.8L409.416 786.8V792V800.5V815V832L619.416 830.934C709.816 830.667 800.5 830.934 800.5 830.934H828.35L864.35 830.933L866.35 663.067L865.159 763L865.314 750L865.612 725L866.07 686.5L866.35 663.067L858.616 655.867C850.216 648.267 840.883 638.934 828.35 625.6C824.083 621.067 820.35 617.334 820.083 617.334C819.95 617.334 819.683 618.134 819.816 618.934C819.816 619.867 819.683 658 819.683 703.734V784.934H760C726.267 784.667 696.483 785.467 695.816 784.934C695.283 784.267 527 784.934 527 784.934C527 784.934 696.483 785.467 695.816 784.934C695.283 784.534 641 785.167 641 785.167Z" fill="white"/>
</g>
<g style="mix-blend-mode:luminosity" filter="url(#filter5_d_0_1)">
<path d="M651.992 545.442C651.682 545.833 649.214 551.556 646.577 558.209C640.966 572.506 642.877 571.64 628.039 566.343C622.724 564.412 614.245 561.447 609.289 559.738C604.348 557.944 597.649 556.172 594.3 555.719C588.928 554.991 588.025 555.129 584.577 556.998C578.986 560.136 575.7 563.758 571.944 570.865L568.623 577.338L574.593 579.617C577.881 580.841 584.303 583.268 588.808 584.83C593.375 586.486 603.63 590.211 611.627 593.197C619.638 596.099 630.876 600.129 636.58 602.113C642.362 604.107 650.592 607.125 654.91 608.835C659.291 610.639 671.324 615.124 681.565 618.933C691.899 622.668 708.187 628.767 717.883 632.502C727.656 636.248 736.105 639.382 736.727 639.467C738.363 639.688 740.557 631.504 740.917 623.765C741.31 616.722 740.185 611.465 737.669 608.614C735.698 606.271 725.456 602.029 703.091 594.242C693.864 591.003 686.023 588.038 685.726 587.478C684.959 586.422 690.313 570.013 692.971 565.008C693.93 563.234 694.763 561.27 694.869 560.678C695.464 557.384 654.161 542.707 651.992 545.442Z" fill="white"/>
</g>
<g style="mix-blend-mode:luminosity" filter="url(#filter6_d_0_1)">
<path d="M559.055 594.324C556.571 596.659 550.847 601.57 546.372 605.272C541.912 608.89 533.442 616.704 527.473 622.53C521.504 628.356 512.249 637.011 506.957 641.722C501.588 646.423 493.087 653.974 487.98 658.538C482.888 663.019 477.549 667.551 476.206 668.403C474.847 669.339 473.628 670.381 473.568 670.717C473.401 671.642 484.536 678.06 490.457 680.413C493.34 681.578 499.185 684.351 503.542 686.578C507.822 688.794 511.465 690.58 511.65 690.432C511.836 690.285 515.749 685.301 520.402 679.297C528.444 669.013 537.367 658.245 545.83 648.707C547.911 646.404 552.197 641.557 555.31 637.929C558.501 634.311 563.127 629.337 565.563 626.824C570.22 622.113 579.47 611.734 585.695 604.047L589.332 599.715L583.94 597.951C581.011 597.038 575.959 595.147 572.719 593.761C569.48 592.375 566.085 590.968 565.279 590.6C564.023 590.086 562.68 590.938 559.055 594.324Z" fill="white"/>
</g>
<g style="mix-blend-mode:luminosity" filter="url(#filter7_d_0_1)">
<path d="M588.533 610.591C585.553 615.169 580.174 622.428 576.679 626.764C573.184 631.1 567.725 637.919 564.587 642.046C561.464 646.089 557.351 651.2 555.463 653.263C548.159 661.464 522.894 693.598 522.622 695.107C522.576 695.359 523.247 695.621 524.026 695.727C524.882 695.843 530.84 698.195 537.267 701.04C543.71 703.802 549.622 706.405 550.511 706.783C551.853 707.308 552.456 706.617 555.062 701.903C556.79 698.959 560.799 691.773 564.132 686.126C567.401 680.386 571.365 673.451 572.922 670.57C576.067 664.64 577.734 662.032 591.986 640.086C602.81 623.431 611.838 608.765 611.509 608.377C611.196 607.905 596.381 602.465 595.213 602.306C594.497 602.295 591.729 605.699 588.533 610.591Z" fill="white"/>
</g>
<g style="mix-blend-mode:luminosity" filter="url(#filter8_d_0_1)">
<path d="M616.083 611.226C615.75 613.075 613.958 616.363 601.17 639.86C593.664 653.568 588.859 662.044 580.854 675.856C569.697 695.183 561.586 709.584 561.404 710.592C561.268 711.349 562.736 712.064 565.858 712.917C568.463 713.528 574.396 715.623 579.097 717.465C583.797 719.306 587.872 720.633 588.136 720.496C588.71 719.971 591.962 712.576 598.182 697.145C607.266 674.696 629.767 623.497 632.734 618.56C634.218 616.092 634.249 615.924 632.611 615.702C631.675 615.576 627.631 614.081 623.695 612.429L616.402 609.461L616.083 611.226Z" fill="white"/>
</g>
<g style="mix-blend-mode:luminosity" filter="url(#filter9_d_0_1)">
<path d="M638.648 620.636C638.45 621.734 636.339 627.59 633.96 633.582C631.581 639.575 627.089 650.99 624.043 658.881C620.918 666.762 616.596 677.682 614.403 683.094C607.961 698.57 599.119 721.506 598.644 723.691C598.214 725.622 598.659 725.855 608.869 729.487C614.735 731.578 621.14 733.829 623.232 734.372C626.687 735.445 626.86 735.382 627.211 733.44C630.045 717.735 644.382 661.202 650.956 639.602C653.494 631.382 655.407 624.375 655.151 623.995C654.783 623.34 642.591 619.008 640.374 618.708C639.504 618.59 638.907 619.201 638.648 620.636Z" fill="white"/>
</g>
<g style="mix-blend-mode:luminosity" filter="url(#filter10_d_0_1)">
<path d="M659.613 629.256C659.545 631.403 658.069 639.138 656.451 646.336C654.818 653.618 650.899 671.803 647.712 686.81C644.526 701.817 640.7 719.928 639.082 727.126L636.26 740.113L648.145 744.481C654.641 746.913 661.074 749.25 662.492 749.787L665.046 750.65L665.172 747.304C665.257 745.504 666.521 731.876 668.06 717.163C669.599 702.451 671.507 683.045 672.231 674.173C673.049 665.228 674.47 652.052 675.48 644.686L677.306 631.478L670.095 629.036C666.108 627.72 662.213 626.33 661.325 625.951C659.83 625.404 659.722 625.562 659.613 629.256Z" fill="white"/>
</g>
<g style="mix-blend-mode:luminosity" filter="url(#filter11_d_0_1)">
<path d="M680.51 633.573C682.43 637.55 681.211 666.003 677.001 716.788C675.567 734.923 674.372 750.842 674.503 752.33C674.638 754.682 674.967 755.073 678.777 756.107C685.303 758.028 701.605 763.347 703.464 764.117C706.12 765.342 706.082 767.325 703.457 722.531C701.232 683.929 699.89 647.522 700.591 643.64C701.215 640.18 701.215 640.18 689.58 636.011C686.285 634.787 682.771 633.447 681.802 633.056C680.381 632.518 680.116 632.655 680.51 633.573Z" fill="white"/>
</g>
<g style="mix-blend-mode:luminosity" filter="url(#filter12_d_0_1)">
<path d="M705.001 647.819C705.296 651.055 705.733 654.397 705.986 655.209C706.239 656.021 706.695 660.143 706.964 664.412C707.248 668.598 708.225 680.911 709.148 691.748C710.916 713.412 713.094 742.994 713.97 757.194L714.479 766.334L721.647 767.822C725.645 768.709 735.669 770.325 743.849 771.519L758.899 773.643L758.068 769.383C757.684 767.085 756.072 759.178 754.588 751.893C753.041 744.513 750.198 730.133 748.202 719.928C746.22 709.639 743.633 696.503 742.53 690.652C741.349 684.79 739.335 674.237 738.055 667.152L735.734 654.312L722.089 648.836C714.556 645.829 707.538 643.065 706.491 642.664L704.459 641.957L705.001 647.819Z" fill="white"/>
</g>
<g style="mix-blend-mode:luminosity" filter="url(#filter13_d_0_1)">
<path d="M485.405 925.968C489.672 925.968 492.915 926.48 495.133 927.504C497.352 928.443 499.315 929.509 501.021 930.704C502.045 931.301 502.856 931.771 503.453 932.112C504.136 932.368 504.776 932.496 505.374 932.496C506.227 932.496 506.824 932.027 507.166 931.088C507.592 930.149 507.933 928.741 508.189 926.864H511.133C511.048 928.315 510.92 930.064 510.75 932.112C510.664 934.075 510.579 936.72 510.493 940.048C510.493 943.291 510.493 947.6 510.493 952.976H507.549C507.294 948.88 506.398 944.955 504.861 941.2C503.325 937.445 501.064 934.373 498.077 931.984C495.176 929.595 491.336 928.4 486.557 928.4C482.035 928.4 478.28 929.765 475.293 932.496C472.392 935.227 470.941 938.811 470.941 943.248C470.941 947.088 471.923 950.331 473.885 952.976C475.848 955.536 478.451 957.883 481.693 960.016C485.021 962.064 488.605 964.283 492.445 966.672C496.883 969.403 500.808 972.133 504.222 974.864C507.72 977.509 510.451 980.453 512.413 983.696C514.461 986.939 515.486 990.864 515.486 995.472C515.486 1000.93 514.248 1005.46 511.773 1009.04C509.299 1012.62 506.014 1015.31 501.917 1017.1C497.821 1018.9 493.299 1019.79 488.349 1019.79C483.827 1019.79 480.243 1019.28 477.597 1018.26C474.952 1017.23 472.691 1016.17 470.813 1015.06C468.936 1013.86 467.485 1013.26 466.461 1013.26C465.608 1013.26 464.968 1013.73 464.541 1014.67C464.2 1015.61 463.901 1017.02 463.645 1018.9H460.701C460.872 1017.1 460.957 1015.01 460.957 1012.62C461.043 1010.15 461.085 1006.95 461.085 1003.02C461.171 999.099 461.213 994.149 461.213 988.176H464.157C464.499 993.296 465.437 998.075 466.973 1002.51C468.595 1006.95 471.027 1010.53 474.269 1013.26C477.597 1015.91 481.992 1017.23 487.453 1017.23C490.269 1017.23 492.915 1016.68 495.389 1015.57C497.949 1014.37 500.04 1012.54 501.661 1010.06C503.283 1007.5 504.093 1004.22 504.093 1000.21C504.093 996.709 503.24 993.68 501.534 991.12C499.912 988.475 497.608 986.043 494.621 983.824C491.635 981.52 488.136 979.173 484.125 976.784C480.115 974.309 476.36 971.792 472.861 969.232C469.363 966.672 466.547 963.728 464.413 960.4C462.365 956.987 461.341 952.891 461.341 948.112C461.341 943.077 462.451 938.939 464.669 935.696C466.973 932.368 469.96 929.936 473.629 928.4C477.299 926.779 481.224 925.968 485.405 925.968ZM619.682 927.376V929.936C617.037 930.277 614.477 931.131 612.002 932.496C609.528 933.861 607.053 936.123 604.578 939.28L579.874 970.896L582.69 964.624L613.41 1007.63C614.861 1009.77 616.44 1011.43 618.146 1012.62C619.853 1013.82 622.029 1014.76 624.674 1015.44V1018C622.627 1017.83 620.067 1017.74 616.994 1017.74C614.008 1017.66 611.448 1017.62 609.314 1017.62C607.864 1017.62 606.072 1017.66 603.938 1017.74C601.89 1017.74 599.288 1017.83 596.13 1018V1015.44C599.032 1015.27 600.866 1014.76 601.634 1013.9C602.402 1013.05 602.104 1011.64 600.738 1009.68L582.05 981.52C580.344 978.875 578.808 976.912 577.442 975.632C576.162 974.267 574.797 973.371 573.346 972.944C571.981 972.517 570.232 972.261 568.098 972.176V969.616C571.682 969.531 574.669 968.848 577.058 967.568C579.533 966.203 581.581 964.496 583.202 962.448L595.49 946.832C598.306 943.248 600.226 940.219 601.25 937.744C602.274 935.269 602.232 933.392 601.122 932.112C600.013 930.747 597.666 930.021 594.082 929.936V927.376C595.704 927.461 597.368 927.547 599.074 927.632C600.781 927.632 602.445 927.675 604.066 927.76C605.773 927.76 607.352 927.76 608.802 927.76C611.021 927.76 613.069 927.717 614.946 927.632C616.824 927.547 618.402 927.461 619.682 927.376ZM578.978 927.376V929.936C576.077 930.021 573.858 930.363 572.322 930.96C570.872 931.472 569.89 932.496 569.378 934.032C568.866 935.483 568.61 937.787 568.61 940.944V1004.43C568.61 1007.5 568.866 1009.81 569.378 1011.34C569.89 1012.88 570.872 1013.9 572.322 1014.42C573.858 1014.93 576.077 1015.27 578.978 1015.44V1018C577.016 1017.83 574.541 1017.74 571.554 1017.74C568.653 1017.66 565.709 1017.62 562.722 1017.62C559.394 1017.62 556.28 1017.66 553.378 1017.74C550.477 1017.74 548.13 1017.83 546.338 1018V1015.44C549.24 1015.27 551.416 1014.93 552.866 1014.42C554.402 1013.9 555.426 1012.88 555.938 1011.34C556.45 1009.81 556.706 1007.5 556.706 1004.43V940.944C556.706 937.787 556.45 935.483 555.938 934.032C555.426 932.496 554.402 931.472 552.866 930.96C551.416 930.363 549.24 930.021 546.338 929.936V927.376C548.13 927.461 550.477 927.547 553.378 927.632C556.28 927.717 559.394 927.76 562.722 927.76C565.709 927.76 568.653 927.717 571.554 927.632C574.541 927.547 577.016 927.461 578.978 927.376ZM727.877 927.376V929.936C724.976 930.021 722.757 930.448 721.221 931.216C719.771 931.984 718.789 933.221 718.277 934.928C717.765 936.635 717.509 939.067 717.509 942.224V980.752C717.509 986.725 717.125 991.931 716.357 996.368C715.589 1000.81 714.224 1004.65 712.261 1007.89C710.128 1011.47 707.013 1014.37 702.917 1016.59C698.821 1018.73 694.128 1019.79 688.837 1019.79C684.741 1019.79 680.816 1019.28 677.061 1018.26C673.392 1017.32 670.149 1015.53 667.333 1012.88C664.859 1010.49 662.896 1007.97 661.445 1005.33C660.08 1002.68 659.141 999.44 658.629 995.6C658.117 991.76 657.861 986.939 657.861 981.136V940.944C657.861 937.787 657.605 935.483 657.093 934.032C656.581 932.496 655.557 931.472 654.021 930.96C652.571 930.363 650.395 930.021 647.493 929.936V927.376C649.285 927.461 651.632 927.547 654.533 927.632C657.435 927.717 660.549 927.76 663.877 927.76C666.864 927.76 669.808 927.717 672.709 927.632C675.696 927.547 678.171 927.461 680.133 927.376V929.936C677.232 930.021 675.013 930.363 673.477 930.96C672.027 931.472 671.045 932.496 670.533 934.032C670.021 935.483 669.765 937.787 669.765 940.944V983.312C669.765 987.664 669.979 991.803 670.405 995.728C670.832 999.568 671.685 1002.98 672.965 1005.97C674.331 1008.87 676.379 1011.17 679.109 1012.88C681.84 1014.5 685.467 1015.31 689.989 1015.31C696.475 1015.31 701.467 1013.9 704.965 1011.09C708.549 1008.19 711.024 1004.22 712.389 999.184C713.84 994.149 714.565 988.475 714.565 982.16V942.224C714.565 939.067 714.181 936.635 713.413 934.928C712.731 933.221 711.536 931.984 709.829 931.216C708.123 930.448 705.819 930.021 702.917 929.936V927.376C704.453 927.461 706.459 927.547 708.933 927.632C711.493 927.717 713.84 927.76 715.973 927.76C718.192 927.76 720.368 927.717 722.501 927.632C724.72 927.547 726.512 927.461 727.877 927.376ZM819.735 927.376C819.394 930.619 819.138 933.776 818.967 936.848C818.882 939.835 818.839 942.139 818.839 943.76C818.839 945.808 818.882 947.728 818.967 949.52C819.053 951.312 819.138 952.891 819.223 954.256H816.279C815.682 948.283 814.871 943.589 813.847 940.176C812.823 936.677 811.031 934.16 808.471 932.624C805.911 931.088 801.943 930.32 796.567 930.32H788.503C785.602 930.32 783.383 930.576 781.847 931.088C780.397 931.515 779.415 932.496 778.903 934.032C778.391 935.483 778.135 937.787 778.135 940.944V1004.43C778.135 1007.5 778.434 1009.81 779.031 1011.34C779.714 1012.88 780.994 1013.9 782.871 1014.42C784.749 1014.93 787.479 1015.27 791.063 1015.44V1018C788.845 1017.83 786.029 1017.74 782.615 1017.74C779.202 1017.66 775.746 1017.62 772.247 1017.62C768.919 1017.62 765.805 1017.66 762.903 1017.74C760.002 1017.74 757.655 1017.83 755.863 1018V1015.44C758.765 1015.27 760.941 1014.93 762.391 1014.42C763.927 1013.9 764.951 1012.88 765.463 1011.34C765.975 1009.81 766.231 1007.5 766.231 1004.43V940.944C766.231 937.787 765.975 935.483 765.463 934.032C764.951 932.496 763.927 931.472 762.391 930.96C760.941 930.363 758.765 930.021 755.863 929.936V927.376C759.021 927.461 762.349 927.547 765.847 927.632C769.346 927.632 772.802 927.675 776.215 927.76C779.629 927.76 782.786 927.76 785.687 927.76C788.674 927.76 791.106 927.76 792.983 927.76C796.909 927.76 801.346 927.76 806.295 927.76C811.33 927.675 815.81 927.547 819.735 927.376ZM799.895 972.432C799.895 972.432 799.895 972.859 799.895 973.712C799.895 974.565 799.895 974.992 799.895 974.992H774.295C774.295 974.992 774.295 974.565 774.295 973.712C774.295 972.859 774.295 972.432 774.295 972.432H799.895ZM802.327 955.536C801.986 960.4 801.815 964.112 801.815 966.672C801.901 969.232 801.943 971.579 801.943 973.712C801.943 975.845 801.986 978.192 802.071 980.752C802.157 983.312 802.37 987.024 802.711 991.888H799.767C799.426 989.157 798.999 986.512 798.487 983.952C798.061 981.307 797.037 979.173 795.415 977.552C793.879 975.845 791.234 974.992 787.479 974.992V972.432C790.295 972.432 792.429 971.877 793.879 970.768C795.415 969.573 796.525 968.08 797.207 966.288C797.89 964.496 798.359 962.661 798.615 960.784C798.871 958.821 799.127 957.072 799.383 955.536H802.327Z" fill="white"/>
</g>
</g>
<defs>
<filter id="filter0_d_0_1" x="-4" y="0" width="1373.33" height="1373.33" filterUnits="userSpaceOnUse" color-interpolation-filters="sRGB">
<feFlood flood-opacity="0" result="BackgroundImageFix"/>
<feColorMatrix in="SourceAlpha" type="matrix" values="0 0 0 0 0 0 0 0 0 0 0 0 0 0 0 0 0 0 127 0" result="hardAlpha"/>
<feOffset dy="4"/>
<feGaussianBlur stdDeviation="2"/>
<feComposite in2="hardAlpha" operator="out"/>
<feColorMatrix type="matrix" values="0 0 0 0 0 0 0 0 0 0 0 0 0 0 0 0 0 0 0.25 0"/>
<feBlend mode="normal" in2="BackgroundImageFix" result="effect1_dropShadow_0_1"/>
<feBlend mode="normal" in="SourceGraphic" in2="effect1_dropShadow_0_1" result="shape"/>
</filter>
<filter id="filter1_d_0_1" x="325" y="348" width="623.75" height="341.333" filterUnits="userSpaceOnUse" color-interpolation-filters="sRGB">
<feFlood flood-opacity="0" result="BackgroundImageFix"/>
<feColorMatrix in="SourceAlpha" type="matrix" values="0 0 0 0 0 0 0 0 0 0 0 0 0 0 0 0 0 0 127 0" result="hardAlpha"/>
<feOffset dy="4"/>
<feGaussianBlur stdDeviation="2"/>
<feComposite in2="hardAlpha" operator="out"/>
<feColorMatrix type="matrix" values="0 0 0 0 0 0 0 0 0 0 0 0 0 0 0 0 0 0 0.25 0"/>
<feBlend mode="normal" in2="BackgroundImageFix" result="effect1_dropShadow_0_1"/>
<feBlend mode="normal" in="SourceGraphic" in2="effect1_dropShadow_0_1" result="shape"/>
</filter>
<filter id="filter2_d_0_1" x="652.364" y="325.951" width="140.232" height="234.179" filterUnits="userSpaceOnUse" color-interpolation-filters="sRGB">
<feFlood flood-opacity="0" result="BackgroundImageFix"/>
<feColorMatrix in="SourceAlpha" type="matrix" values="0 0 0 0 0 0 0 0 0 0 0 0 0 0 0 0 0 0 127 0" result="hardAlpha"/>
<feOffset dy="4"/>
<feGaussianBlur stdDeviation="2"/>
<feComposite in2="hardAlpha" operator="out"/>
<feColorMatrix type="matrix" values="0 0 0 0 0 0 0 0 0 0 0 0 0 0 0 0 0 0 0.25 0"/>
<feBlend mode="normal" in2="BackgroundImageFix" result="effect1_dropShadow_0_1"/>
<feBlend mode="normal" in="SourceGraphic" in2="effect1_dropShadow_0_1" result="shape"/>
</filter>
<filter id="filter3_d_0_1" x="666.955" y="331.113" width="110.269" height="227.696" filterUnits="userSpaceOnUse" color-interpolation-filters="sRGB">
<feFlood flood-opacity="0" result="BackgroundImageFix"/>
<feColorMatrix in="SourceAlpha" type="matrix" values="0 0 0 0 0 0 0 0 0 0 0 0 0 0 0 0 0 0 127 0" result="hardAlpha"/>
<feOffset dy="4"/>
<feGaussianBlur stdDeviation="2"/>
<feComposite in2="hardAlpha" operator="out"/>
<feColorMatrix type="matrix" values="0 0 0 0 0 0 0 0 0 0 0 0 0 0 0 0 0 0 0.25 0"/>
<feBlend mode="normal" in2="BackgroundImageFix" result="effect1_dropShadow_0_1"/>
<feBlend mode="normal" in="SourceGraphic" in2="effect1_dropShadow_0_1" result="shape"/>
</filter>
<filter id="filter4_d_0_1" x="405.416" y="617.334" width="464.933" height="222.666" filterUnits="userSpaceOnUse" color-interpolation-filters="sRGB">
<feFlood flood-opacity="0" result="BackgroundImageFix"/>
<feColorMatrix in="SourceAlpha" type="matrix" values="0 0 0 0 0 0 0 0 0 0 0 0 0 0 0 0 0 0 127 0" result="hardAlpha"/>
<feOffset dy="4"/>
<feGaussianBlur stdDeviation="2"/>
<feComposite in2="hardAlpha" operator="out"/>
<feColorMatrix type="matrix" values="0 0 0 0 0 0 0 0 0 0 0 0 0 0 0 0 0 0 0.25 0"/>
<feBlend mode="normal" in2="BackgroundImageFix" result="effect1_dropShadow_0_1"/>
<feBlend mode="normal" in="SourceGraphic" in2="effect1_dropShadow_0_1" result="shape"/>
</filter>
<filter id="filter5_d_0_1" x="564.622" y="545.104" width="180.371" height="102.367" filterUnits="userSpaceOnUse" color-interpolation-filters="sRGB">
<feFlood flood-opacity="0" result="BackgroundImageFix"/>
<feColorMatrix in="SourceAlpha" type="matrix" values="0 0 0 0 0 0 0 0 0 0 0 0 0 0 0 0 0 0 127 0" result="hardAlpha"/>
<feOffset dy="4"/>
<feGaussianBlur stdDeviation="2"/>
<feComposite in2="hardAlpha" operator="out"/>
<feColorMatrix type="matrix" values="0 0 0 0 0 0 0 0 0 0 0 0 0 0 0 0 0 0 0.25 0"/>
<feBlend mode="normal" in2="BackgroundImageFix" result="effect1_dropShadow_0_1"/>
<feBlend mode="normal" in="SourceGraphic" in2="effect1_dropShadow_0_1" result="shape"/>
</filter>
<filter id="filter6_d_0_1" x="469.566" y="590.462" width="123.767" height="107.979" filterUnits="userSpaceOnUse" color-interpolation-filters="sRGB">
<feFlood flood-opacity="0" result="BackgroundImageFix"/>
<feColorMatrix in="SourceAlpha" type="matrix" values="0 0 0 0 0 0 0 0 0 0 0 0 0 0 0 0 0 0 127 0" result="hardAlpha"/>
<feOffset dy="4"/>
<feGaussianBlur stdDeviation="2"/>
<feComposite in2="hardAlpha" operator="out"/>
<feColorMatrix type="matrix" values="0 0 0 0 0 0 0 0 0 0 0 0 0 0 0 0 0 0 0.25 0"/>
<feBlend mode="normal" in2="BackgroundImageFix" result="effect1_dropShadow_0_1"/>
<feBlend mode="normal" in="SourceGraphic" in2="effect1_dropShadow_0_1" result="shape"/>
</filter>
<filter id="filter7_d_0_1" x="518.62" y="602.306" width="96.8986" height="112.626" filterUnits="userSpaceOnUse" color-interpolation-filters="sRGB">
<feFlood flood-opacity="0" result="BackgroundImageFix"/>
<feColorMatrix in="SourceAlpha" type="matrix" values="0 0 0 0 0 0 0 0 0 0 0 0 0 0 0 0 0 0 127 0" result="hardAlpha"/>
<feOffset dy="4"/>
<feGaussianBlur stdDeviation="2"/>
<feComposite in2="hardAlpha" operator="out"/>
<feColorMatrix type="matrix" values="0 0 0 0 0 0 0 0 0 0 0 0 0 0 0 0 0 0 0.25 0"/>
<feBlend mode="normal" in2="BackgroundImageFix" result="effect1_dropShadow_0_1"/>
<feBlend mode="normal" in="SourceGraphic" in2="effect1_dropShadow_0_1" result="shape"/>
</filter>
<filter id="filter8_d_0_1" x="557.395" y="609.461" width="80.4483" height="119.045" filterUnits="userSpaceOnUse" color-interpolation-filters="sRGB">
<feFlood flood-opacity="0" result="BackgroundImageFix"/>
<feColorMatrix in="SourceAlpha" type="matrix" values="0 0 0 0 0 0 0 0 0 0 0 0 0 0 0 0 0 0 127 0" result="hardAlpha"/>
<feOffset dy="4"/>
<feGaussianBlur stdDeviation="2"/>
<feComposite in2="hardAlpha" operator="out"/>
<feColorMatrix type="matrix" values="0 0 0 0 0 0 0 0 0 0 0 0 0 0 0 0 0 0 0.25 0"/>
<feBlend mode="normal" in2="BackgroundImageFix" result="effect1_dropShadow_0_1"/>
<feBlend mode="normal" in="SourceGraphic" in2="effect1_dropShadow_0_1" result="shape"/>
</filter>
<filter id="filter9_d_0_1" x="594.539" y="618.693" width="64.6351" height="124.374" filterUnits="userSpaceOnUse" color-interpolation-filters="sRGB">
<feFlood flood-opacity="0" result="BackgroundImageFix"/>
<feColorMatrix in="SourceAlpha" type="matrix" values="0 0 0 0 0 0 0 0 0 0 0 0 0 0 0 0 0 0 127 0" result="hardAlpha"/>
<feOffset dy="4"/>
<feGaussianBlur stdDeviation="2"/>
<feComposite in2="hardAlpha" operator="out"/>
<feColorMatrix type="matrix" values="0 0 0 0 0 0 0 0 0 0 0 0 0 0 0 0 0 0 0.25 0"/>
<feBlend mode="normal" in2="BackgroundImageFix" result="effect1_dropShadow_0_1"/>
<feBlend mode="normal" in="SourceGraphic" in2="effect1_dropShadow_0_1" result="shape"/>
</filter>
<filter id="filter10_d_0_1" x="632.26" y="625.717" width="49.0456" height="132.933" filterUnits="userSpaceOnUse" color-interpolation-filters="sRGB">
<feFlood flood-opacity="0" result="BackgroundImageFix"/>
<feColorMatrix in="SourceAlpha" type="matrix" values="0 0 0 0 0 0 0 0 0 0 0 0 0 0 0 0 0 0 127 0" result="hardAlpha"/>
<feOffset dy="4"/>
<feGaussianBlur stdDeviation="2"/>
<feComposite in2="hardAlpha" operator="out"/>
<feColorMatrix type="matrix" values="0 0 0 0 0 0 0 0 0 0 0 0 0 0 0 0 0 0 0.25 0"/>
<feBlend mode="normal" in2="BackgroundImageFix" result="effect1_dropShadow_0_1"/>
<feBlend mode="normal" in="SourceGraphic" in2="effect1_dropShadow_0_1" result="shape"/>
</filter>
<filter id="filter11_d_0_1" x="670.494" y="632.741" width="38.9474" height="139.834" filterUnits="userSpaceOnUse" color-interpolation-filters="sRGB">
<feFlood flood-opacity="0" result="BackgroundImageFix"/>
<feColorMatrix in="SourceAlpha" type="matrix" values="0 0 0 0 0 0 0 0 0 0 0 0 0 0 0 0 0 0 127 0" result="hardAlpha"/>
<feOffset dy="4"/>
<feGaussianBlur stdDeviation="2"/>
<feComposite in2="hardAlpha" operator="out"/>
<feColorMatrix type="matrix" values="0 0 0 0 0 0 0 0 0 0 0 0 0 0 0 0 0 0 0.25 0"/>
<feBlend mode="normal" in2="BackgroundImageFix" result="effect1_dropShadow_0_1"/>
<feBlend mode="normal" in="SourceGraphic" in2="effect1_dropShadow_0_1" result="shape"/>
</filter>
<filter id="filter12_d_0_1" x="700.459" y="641.957" width="62.4397" height="139.685" filterUnits="userSpaceOnUse" color-interpolation-filters="sRGB">
<feFlood flood-opacity="0" result="BackgroundImageFix"/>
<feColorMatrix in="SourceAlpha" type="matrix" values="0 0 0 0 0 0 0 0 0 0 0 0 0 0 0 0 0 0 127 0" result="hardAlpha"/>
<feOffset dy="4"/>
<feGaussianBlur stdDeviation="2"/>
<feComposite in2="hardAlpha" operator="out"/>
<feColorMatrix type="matrix" values="0 0 0 0 0 0 0 0 0 0 0 0 0 0 0 0 0 0 0.25 0"/>
<feBlend mode="normal" in2="BackgroundImageFix" result="effect1_dropShadow_0_1"/>
<feBlend mode="normal" in="SourceGraphic" in2="effect1_dropShadow_0_1" result="shape"/>
</filter>
<filter id="filter13_d_0_1" x="456.701" y="925.968" width="367.034" height="101.824" filterUnits="userSpaceOnUse" color-interpolation-filters="sRGB">
<feFlood flood-opacity="0" result="BackgroundImageFix"/>
<feColorMatrix in="SourceAlpha" type="matrix" values="0 0 0 0 0 0 0 0 0 0 0 0 0 0 0 0 0 0 127 0" result="hardAlpha"/>
<feOffset dy="4"/>
<feGaussianBlur stdDeviation="2"/>
<feComposite in2="hardAlpha" operator="out"/>
<feColorMatrix type="matrix" values="0 0 0 0 0 0 0 0 0 0 0 0 0 0 0 0 0 0 0.25 0"/>
<feBlend mode="normal" in2="BackgroundImageFix" result="effect1_dropShadow_0_1"/>
<feBlend mode="normal" in="SourceGraphic" in2="effect1_dropShadow_0_1" result="shape"/>
</filter>
</defs>
</svg>
